<svg width="319" height="401" viewBox="0 0 319 401" xmlns="http://www.w3.org/2000/svg"><g fill="none" fill-rule="evenodd"><path d="M52.318 373.043c-2.657.222-28.417 7.786-2.417 13.786 45.91 10.59 1.92.98 25.92 8.98 5.46 1.82 20.83 4.96 38.67 4.66 40-.67 76.42-7.34 76.42-7.34s28.52 6.74 42.92-3.99c2.95-2.2-14.66-8.67-20-9.34-42.07-5.26-71.19-10.58-71.19-10.58s-18.14 8.56-35.74-7.52" fill-opacity=".375" fill="#121740"/><path d="M339.163 227.712c4.43 17.84 20.48 51.51 32.42 65.58-11.63-7.96-17.94-7.16-29.48-10.44-2.91-1.16-5.9-2.18-8.92-3.08-1.14-.45-2.32-.96-3.56-1.51-.47.08-1.19.06-2.09-.03-5.31-1.33-10.69-2.31-15.99-3.04-4.06-.8-7.56-1.34-8.95-1.01-21.44-1.92-39.93-.09-44.47.16-13.59.75-24.06 7.8-34.74 16.24-10.67 8.43-20.4 18.2-32.14 25.08-20.44 11.98-45.36 14.12-68.91 11.49-6.13-.68-12.33-1.7-17.9-4.36-5.57-2.66-10.5-7.17-12.44-13.03-11.57 2.4-19.71 4.15-29.88-1.87-10.17-6.02-15.09-18.38-9-28.5 4.53-7.53 9.24-7.61 18.03-7.72 11.26-.13 24.29 2.55 32.97 9.72 4.46 3.69-4.78 9.61-.14 13.06 9.78 7.29 22.52 9.39 34.72 9.37 12.78-.02 26.22-2.43 36-10.66 4.41-3.72 7.85-8.44 11.28-13.08 8.21-11.11 16.83-22.28 28.33-29.93 6.09-4.04 12.83-6.99 19.15-10.66 11.11-6.44 61.44-21.79 104.25-18.33.43 2.19.92 4.38 1.46 6.55m-204.51-43.29c-8.28 4.91-19.02 5.13-27.72 1.02-3.19-1.51-6.39-3.97-6.86-7.47-.45-3.27 1.87-6.54 4.94-7.77 3.07-1.24 6.65-.67 9.57.89 1.86 1 3.55 2.4 5.6 2.91 5.13 1.29 10.06-3.76 10.81-9 .74-5.23-1.37-10.4-3.23-15.35-4.49-11.99-7.59-25.76-2-37.28 4.27-8.8 12.99-14.7 22.12-18.2 6.69-2.57 13.98-4.07 21.05-2.87 13.11 2.23 22.83 13.03 31.26 23.31 8.43 10.29 17.64 21.35 30.56 24.48 5.88 1.43 13.01 2.38 24.48 1.55 8.67-.63 50.73-9.53 68.86-19.04l.46-.09c-1.65 2.82-2.87 5.87-3.54 9.49-.17.96-.7 2.85-.2 4.76.59 2.27 1.48 2.26 3.78 2.72 1.77.27 2.97-.45 4.14-.99 1.16-.54 2.08-1.5 2.96-2.43l.9-.96h.01c.38 1.56.74 3.13 1.06 4.71.87 11.56.49 23.16.33 34.77-.03 2.11-.04 4.23-.04 6.35-8.84-.26-15.1-.55-16.06-.97-20.31-1.16-84.19-3.9-96.16-7.08-11.45-3.04-21.78-10.14-28.71-19.74-5.18-7.17-8.49-15.61-14.2-22.37-5.71-6.75-15.47-11.31-22.33-10.13-6.87 1.18-10.92 3.08-13.05 8.21-2.13 5.12-1.24 10.99.29 16.33 1.53 5.33 3.69 10.57 4.02 16.12.58 9.6-4.82 19.21-13.1 24.12" fill="#4459A8"/><path d="M327.533 278.232c-3.67-.38-10.37-1.94-15.99-3.04 5.3.73 10.68 1.71 15.99 3.04m-33.65-150.02c-.89.52-1.88.97-3.62.4-.12-.06-.23-.14-.33-.22 1.32-.03 2.63-.08 3.95-.18" fill="#9EA5CB"/><path d="M141.853 1.182c1.39-.06 2.78-.09 4.17-.08-3.67 7.26-5.68 15.32-5.49 23.47-4.24.28-8.39 1.11-12.37 2.77-13.26 5.53-21.38 18.7-29.09 30.82-2.24 3.53-4.54 7.05-7.3 10.21-8.9 10.15-21.83 15.65-34.37 20.67-9.37 3.76-19.06 7.49-29.16 7.54-10.1.05-20.86-4.35-25.57-13.29-2.79-5.3-2.05-13.52 3.68-15.26 6.1-1.86 11 4.89 16.51 8.08 8.74 5.06 19.87.93 28.48-4.34 12.63-7.74 23.8-17.86 32.74-29.68 7.61-10.07 13.8-21.54 23.71-29.36 9.57-7.55 21.89-11 34.06-11.55" fill="#4459A8"/><path d="M140.533 24.572c-4.24.28-8.39 1.11-12.37 2.77-13.26 5.53-21.38 18.7-29.09 30.82-2.24 3.53-4.54 7.05-7.3 10.21-8.9 10.15-21.83 15.65-34.37 20.67-9.37 3.76-19.06 7.49-29.16 7.54-10.1.05-20.86-4.35-25.57-13.29-2.79-5.3-2.05-13.52 3.68-15.26 6.1-1.86 11 4.89 16.51 8.08 8.74 5.06 19.87.93 28.48-4.34 12.63-7.74 23.8-17.86 32.74-29.68 7.61-10.07 13.8-21.54 23.71-29.36 9.57-7.55 21.89-11 34.06-11.55 1.39-.06 2.78-.09 4.17-.08m-54.03 308.66c-11.57 2.4-19.71 4.15-29.88-1.87-10.17-6.02-15.09-18.38-9-28.5 4.53-7.53 9.24-7.61 18.03-7.72 11.26-.13 24.29 2.55 32.97 9.72 4.46 3.69-4.78 9.61-.14 13.06 9.78 7.29 22.52 9.39 34.72 9.37 12.78-.02 26.22-2.43 36-10.66 4.41-3.72 7.85-8.44 11.28-13.08 8.21-11.11 16.83-22.28 28.33-29.93 6.09-4.04 12.83-6.99 19.15-10.66 11.11-6.44 61.44-21.79 104.25-18.33.43.03.87.07 1.3.11 21.34.36 75.58-29.11 70.42-37.5-1.61-2.62-49.58-3.08-75.47-3.84-8.84-.26-15.1-.55-16.06-.97-20.31-1.16-84.19-3.9-96.16-7.08-11.45-3.04-21.78-10.14-28.71-19.74-5.18-7.17-8.49-15.61-14.2-22.37-5.71-6.75-15.47-11.31-22.33-10.13-6.87 1.18-10.92 3.08-13.05 8.21-2.13 5.12-1.24 10.99.29 16.33 1.53 5.33 3.69 10.57 4.02 16.12.58 9.6-4.82 19.21-13.1 24.12s-19.02 5.13-27.72 1.02c-3.19-1.51-6.39-3.97-6.86-7.47-.45-3.27 1.87-6.54 4.94-7.77 3.07-1.24 6.65-.67 9.57.89 1.86 1 3.55 2.4 5.6 2.91 5.13 1.29 10.06-3.76 10.81-9 .74-5.23-1.37-10.4-3.23-15.35-4.49-11.99-7.59-25.76-2-37.28 4.27-8.8 12.99-14.7 22.12-18.2 6.69-2.57 13.98-4.07 21.05-2.87 13.11 2.23 22.83 13.03 31.26 23.31 8.43 10.29 17.64 21.35 30.56 24.48 5.88 1.43 13.01 2.38 24.48 1.55 8.67-.63 50.73-9.53 68.86-19.04" stroke="#121740" stroke-width="2.2" stroke-linecap="round"/><path d="M91.993 309.762c1.94 5.86 6.87 10.37 12.44 13.03 5.57 2.66 11.77 3.68 17.9 4.36 23.55 2.63 48.47.49 68.91-11.49 11.74-6.88 21.47-16.65 32.14-25.08 10.68-8.44 21.15-15.49 34.74-16.24 4.54-.25 23.03-2.08 44.47-.16 2.94.26 5.93.59 8.95 1.01 5.3.73 10.68 1.71 15.99 3.04 1.89.47 3.78.98 5.65 1.54 3.02.9 6.01 1.92 8.92 3.08 5.34 2.11 10.45 4.68 15.15 7.78" stroke="#121740" stroke-width="2.2" stroke-linecap="round"/><path d="M216.954 358.214c6.577 1.43 11.062 8.636 5.768 19.45-2.18 4.454-10.8 6.28-19.07 7.015-8.77.78-22.508-2.36-27.12-5.13-4.612-2.78-12.06-8.89-12.765-17.56-.265-3.25 1.05-7.04 2.752-8.12 2.78-1.77 6.43-1.21 8.78 1.11 6.97 6.9 23.28 11.21 32.06 7.37l-8.29 1.11-11.35-2.02-9.06-3.91.35-6.34 2.47-5.49 7.73 7.23 11.05 3.97 16.67 1.28z" fill="#F05B29"/><path d="M167.108 284.97c-2.04-7.4-2.24-15.37-8.936-25.88-5.08-7.97-18.12-5.6-36.28-2.32-18.16-3.28-21.516-11.976-29.31-6.63-13.442 9.215-16.027 28.6-16.76 36.05-.547 5.578-3.576 12.846-5.258 16.62-1.194 2.677-5.715 7.225-6.697 8.748-3.448 5.347-3.908 9.102-2.873 21.345 1.87 22.138 9.667 37.506 9.667 37.506l1.3 10.94 16.02.76 33.92-1.5 33.92 1.5 16.02-.77 1.3-10.94s7.8-15.37 9.67-37.51c1.13-13.33-2.07-21.59-9.15-26.71-4.46-3.23-4.31-13.18-6.53-21.23" fill="#F05B29"/><path d="M121.892 379.612h.044l33.872 1.5 15.118-.726 1.198-10.095c.014-.11.048-.23.102-.33.077-.15 7.73-15.47 9.562-37.13 1.058-12.52-1.72-20.73-8.74-25.81-3.37-2.44-4.31-7.99-5.307-13.88-.44-2.64-.91-5.37-1.6-7.89-.51-1.86-.9-3.71-1.31-5.68-1.2-5.7-2.55-12.16-7.5-19.92-2.16-3.39-5.97-4.91-12.34-4.91-6.06 0-13.82 1.4-22.81 3.03l-.1.02c-.11.02-.24.02-.35 0-8.07-1.46-13.34-4-17.19-5.86-2.94-1.42-5.07-2.45-7.12-2.45-1.39 0-2.74.49-4.25 1.52-9.02 6.19-14.66 18.4-16.32 35.32-.41 4.22-2.21 9.91-5.34 16.93-.83 1.87-3.03 4.43-4.8 6.48-.85 1-1.66 1.94-1.97 2.41-3.28 5.1-3.74 8.58-2.71 20.72 1.83 21.67 9.49 36.98 9.56 37.14.06.1.09.22.11.34l1.2 10.1 15.12.73 33.87-1.5h.05m33.92 3.51h-.04l-33.87-1.5-33.87 1.5h-.09l-16.01-.77c-.49-.02-.89-.4-.95-.88l-1.3-10.79c-.84-1.73-7.93-16.85-9.69-37.71-1.06-12.56-.52-16.46 3.03-21.97.39-.59 1.16-1.49 2.14-2.63 1.59-1.85 3.77-4.38 4.49-5.98 3-6.73 4.79-12.36 5.17-16.31 1.72-17.53 7.66-30.25 17.19-36.78 1.86-1.28 3.57-1.87 5.39-1.87 2.51 0 4.93 1.17 7.99 2.65 3.92 1.9 8.8 4.25 16.5 5.66 9.05-1.63 16.86-3.04 23.08-3.04 7.04 0 11.5 1.86 14.04 5.85 5.14 8.07 6.54 14.72 7.77 20.59.41 1.94.79 3.76 1.29 5.56.72 2.61 1.19 5.4 1.64 8.09.93 5.47 1.8 10.63 4.51 12.59 7.65 5.54 10.69 14.31 9.57 27.61-1.76 20.86-8.85 35.98-9.69 37.71l-1.28 10.77c-.05.48-.46.86-.95.88l-16.01.77h-.05" fill="#131741"/><path d="M158.172 259.09c-1.866-4.28-7.233-10.42-9.465-14.737-1.683-3.037 1.086-5.68-2.61-5.315 0 0-5.38 1.61-7.464 1.976-2.05.55-8.928 5.708-11.38 6.623-3 1.098-6.33.366-9.477.366-.915 0-9.294-3.586-9.477-3.77-1.87-1.426-13.95-4.463-14.35-3.402-.37 1.07-11.71 26.13-10.8 27.23.55.55 28.87 16.47 30.33 16.83.77.19 14.89 8.5 14.89 8.5.91 1.1 6.77-10.97 15.26-17.61 0 0 16.18 5.17 17.31 4.81 4.1-1.5-1.48-18.81-2.79-21.49" fill="#F05B29"/><path d="M92.57 374.486s1.313-4.25 1.1-7.8c-1.09.907-4.357-.718-6.995-1.4-1.25-.322-16.514-2.54-19.102 5.364-2.12 6.478.585 9.345 1.05 10.27 1.89 3.76 8.693 1.006 8.693 1.006l1.72.356c2.683.556 5.456.528 8.128-.084l.348-.08s3.328-3.475 4.478-6.403c.157-.4.356-.81.58-1.23z" fill="#EDA65B"/><path d="M80.52 365.763c-3.842 0-10.51.676-11.99 5.2-1.71 5.226-.095 7.763.68 8.982.125.195.232.364.313.523.177.353.716 1.424 3.044 1.424 2.114 0 4.35-.89 4.373-.9.184-.074.388-.092.58-.052l1.72.356c2.53.524 5.18.498 7.7-.08l.046-.01c.718-.784 3.16-3.55 4.068-5.86.15-.38.34-.787.578-1.24.152-.518.962-3.392 1.047-6.146-1.1-.013-2.49-.48-3.95-.976-.78-.263-1.59-.535-2.31-.723-.43-.11-2.88-.49-5.91-.49m-7.96 18.14c-2.95 0-4.26-1.37-4.84-2.53-.04-.07-.12-.2-.21-.34-.87-1.36-2.91-4.56-.9-10.69.98-3 4.19-6.58 13.9-6.58 3.19 0 5.85.42 6.4.57.8.21 1.64.49 2.45.77 1.26.43 2.57.87 3.34.87.23 0 .31-.04.31-.04.29-.24.69-.29 1.04-.14.34.15.57.49.6.87.21 3.53-.98 7.6-1.13 8.11-.02.08-.05.16-.09.23-.23.42-.4.79-.53 1.12-1.21 3.08-4.55 6.59-4.69 6.73-.14.14-.31.24-.5.29l-.35.08c-1.47.34-2.98.51-4.48.51-1.37 0-2.74-.14-4.08-.42l-1.43-.29c-.75.27-2.79.94-4.84.94" fill="#131741"/><path d="M75.067 378.182c-.12 0-.244-.022-.363-.068-.518-.2-.776-.784-.575-1.302.64-1.676.51-2.73-.03-4.456-.17-.53.13-1.094.66-1.26.53-.165 1.09.13 1.26.66.64 2.055.83 3.585-.02 5.783-.16.39-.54.64-.94.64m7.91.77c-.15 0-.29-.04-.43-.1-.5-.24-.72-.84-.48-1.34 1.22-2.59.45-4.2.16-4.8-.07-.15-.12-.27-.15-.34-.18-.53.11-1.1.64-1.27.52-.17 1.08.1 1.26.62l.05.12c.37.76 1.48 3.08-.16 6.53-.17.36-.53.57-.91.57" fill="#131741"/><path d="M148.624 374.486s-1.314-4.25-1.1-7.8c1.09.907 4.356-.718 6.994-1.4 1.25-.322 16.514-2.54 19.102 5.364 2.12 6.478-.585 9.345-1.05 10.27-1.89 3.76-8.693 1.006-8.693 1.006l-1.72.356c-2.683.556-5.456.528-8.128-.084l-.35-.08s-3.33-3.475-4.48-6.403c-.16-.4-.36-.81-.58-1.23z" fill="#EDA65B"/><path d="M163.877 380.92c.13 0 .257.024.378.073.02.008 2.258.9 4.372.9 2.328 0 2.867-1.072 3.043-1.424.08-.16.188-.33.312-.53.777-1.22 2.393-3.76.682-8.98-.636-1.94-3.04-5.2-11.99-5.2-3.024 0-5.48.39-5.904.5-.73.19-1.533.46-2.312.72-1.462.49-2.845.96-3.944.97.086 2.75.895 5.63 1.047 6.14.24.45.43.86.58 1.24.91 2.31 3.35 5.07 4.07 5.86l.05.01c2.52.58 5.17.6 7.7.08l1.72-.36c.07-.02.14-.02.21-.02m4.75 2.98c-2.04 0-4.08-.67-4.83-.94l-1.43.29c-2.81.58-5.76.55-8.56-.09l-.34-.08c-.19-.05-.37-.15-.5-.29-.14-.15-3.48-3.66-4.69-6.73-.13-.34-.3-.7-.53-1.12-.04-.08-.07-.15-.09-.23-.15-.52-1.34-4.59-1.12-8.11.02-.38.26-.72.61-.87.35-.15.75-.1 1.05.15 0 0 .08.03.3.03.78 0 2.08-.44 3.35-.87.82-.28 1.66-.56 2.46-.77.56-.15 3.22-.56 6.41-.56 9.71 0 12.92 3.58 13.91 6.58 2 6.13-.03 9.33-.9 10.69-.09.14-.18.28-.21.35-.58 1.16-1.9 2.53-4.84 2.53" fill="#131741"/><path d="M166.127 378.182c-.404 0-.784-.244-.94-.643-.85-2.2-.663-3.73-.02-5.79.165-.53.728-.83 1.26-.66.53.16.826.73.66 1.26-.54 1.72-.67 2.78-.022 4.45.2.52-.057 1.1-.575 1.3-.12.04-.242.06-.363.06m-7.91.77c-.378 0-.74-.22-.91-.58-1.637-3.46-.52-5.77-.156-6.54.03-.05.05-.1.06-.13.18-.53.74-.8 1.27-.63.53.17.81.75.64 1.28-.02.08-.07.19-.14.34-.29.61-1.06 2.22.16 4.8.24.5.03 1.1-.48 1.34-.14.06-.28.09-.43.09" fill="#131741"/><path d="M127.795 321.034c4.586-.692 6.87-9.326 10.918-7.842 4.047 1.484 7.28 1.692 7.28 1.692s1.89-4.892 5.09-4.968c3.2-.077 6.904 3.317 6.904 3.317l-2.843 12.047-4.21-6.785s-4.305 5.28-5.68 4.957c-1.375-.325-3.575-2.42-5.25-2.814-1.673-.395-16.836 9.233-16.335 7.467.5-1.766 4.12-7.07 4.12-7.07m-.86 25.548c3.5-.15 5.39-5.792 8.45-4.518 3.05 1.275 5.51 1.637 5.51 1.637s1.52-3.157 3.96-2.988c2.44.17 5.2 2.702 5.2 2.702l-2.37 7.897-3.1-4.847s-3.37 3.252-4.41 2.94c-1.04-.313-2.69-1.87-3.95-2.25-1.27-.38-12.99 5.045-12.57 3.893.41-1.16 3.26-4.47 3.26-4.47m-11.24 4.53c-3.51-.15-5.39-5.79-8.45-4.52-3.06 1.27-5.52 1.63-5.52 1.63s-1.52-3.16-3.96-2.99c-2.44.17-5.21 2.7-5.21 2.7l2.36 7.9 3.09-4.85s3.37 3.25 4.41 2.94c1.04-.32 2.68-1.87 3.95-2.25 1.27-.38 12.98 5.04 12.57 3.89-.41-1.15-3.26-4.47-3.26-4.47m.33-30.89c-4.98-.31-7.79-8.79-12.1-6.96-4.31 1.83-7.79 2.3-7.79 2.3s-2.24-4.76-5.69-4.56c-3.46.19-5.41 1.5-5.41 1.5l1.65 14.26 4.27-7.16s1.9 3.55 2.45 2.28c.74-1.74 3.11 2.45 3.87 2.22 1.47-.44 3.76-2.73 5.55-3.27.87-.26 11.16 8.48 9.13 4.33-1.17-2.39 9.1 2.68 8.79 1.8-.61-1.73-4.74-6.75-4.74-6.75m-12.94-74.44c-2.01 3.38-4.97 3.85-7.6 12.85-1.13 3.84 5.72.95 6.17 2.04.45 1.1-5.98 17.72-.63 13.44 1.33-1.07 4.08-3.07 6.06-4.49 1.13-.81 2.72-.3 3.16 1.03 1.51 4.56 4.6 13.5 6.14 14.98 2.08 1.99 4.35-7.99 5.05-3.23.45 3.12 2.67-2.63 4.14-6.96.53-1.58 2.68-1.79 3.5-.33l2.89 5.09s0-12.08 3.15-13.98c1.12-.68 5.67 8.12 6.4 6.66.34-.7-.02-4.03-.49-7.35-.42-2.91 2.63-5.06 5.24-3.7 3.03 1.59 5.61 2.64 3.73.43-3.73-4.39-5.42-17.92-11.27-18.42-2.16-.18-6.95-4.28-6.95-4.28s-22.91-1.66-24.11 0c-1.21 1.66-4.62 6.2-4.62 6.2M184.88 361c.462.172 10.63 5.342 9.97 6.003-.66.66-2.246 1.583-2.38 2.244-.13.66 3.04 4.398 3.7 5.37.662.973-1.347 2.033-2.39 2.56-1.044.527-5.598-.398-3.19 1.98 2.41 2.38 3.69 5.26 3.69 5.26s-1.045-.082-2.862-.392c-1.817-.31-10.804-2.49-12.272-3.102-1.465-.612-5.094-2.696-6.367-3.745-1.28-1.05-6.66-7.666-6.66-7.666s-2.39-5.19-2.53-6.353c-.14-1.17.16-5.32.62-6.36.46-1.05 5.53-3.96 5.53-3.96s.73-1.35 3.6.92 9.66 7.16 9.66 7.16l1.87.07z" fill="#EDA65B"/><path d="M119.69 259.6s9.696-.733 11.526-2.855c8.928-10.392 17.49-12.88 17.49-12.88l-1.317-2.67-27.89 5.34-25.69-5.195v2.854s6.69 2.306 15.84 12.697c1.83 2.2 9.84 2.71 10.02 2.71" fill="#A03922"/><path d="M160.635 203.945c-.183 9.66-1.464 19.686-6.513 28.102-2.232 3.768-3.147 6.622-6.696 9.294-3 2.16-9.697.88-14.527 4.83 0 0-6.7 5.71-12.48 5.38-5.6-.36-11.16-5.01-11.16-5.01-2.78-2.67-9.48-3.22-13.61-4.64-4.83-1.79-12.48-16.65-13.03-19.32l-1.32-5.01c-1.69-3.91-2.05-8.23-4.1-12.14-1.47-2.52-2.6-4.65-3.15-6.99-1.14-5.38-2.42-10.94-3.37-16.28-1.69-8.05-5.02-21.11.36-27.92 0 0 6.07-1.39 16.94 10.03 5.23 4.65 10.42 13.43 16.94 15.92 0 0 2.23-2.3 3.55-4.46 1.46 1.25 4.28 2.86 6.51 2.53 1.46 0 2.6-1.42 3.73-1.42.91 0 2.41.88 2.78.88 3.91 1.61 3.73-1.79 5.96-1.61 2.23 0 2.23 4.28 7.06 1.61l2.41-.18c6.14-6.44 18.4-22.9 28.87-20.56 9.29 2.31-1.69 38.31-4.83 47.06" fill="#F05B29"/><path d="M168.283 170.5c-.366 4.465-1.317 8.783-2.232 13.064-1.46 6.623-3.36 13.063-5.59 19.503-.36.183-.84 2.963-.88 4.025-.22 3.95-.65 7.94-1.53 11.89-1.13 5.014-3.14 9.295-5.6 13.76-1.86 3.402-3.73 7.537-8.01 8.598-1.86.55-3.73.732-5.38 1.098 0-.732-.76-1.244-1.46-.732-1.68 1.098-5.38 3.77-5.38 3.915-3.55 2.53-7.46 4.83-11.71 4.65-3.14-.18-6.33-1.97-8.74-3.58-.77-.36-3-2.16-3.36-2.3-1.46-1.09-2.78-1.97-4.28-3.03-.77-.55-1.46.19-1.46 1.1-1.46-.36-2.78-.55-4.1-.88-3.91-.87-5.96-3.77-8.19-6.99-3.55-5.19-5.96-10.57-7.61-16.64-.55-1.97-1.32-3.91-1.87-6.07-.76-3.03-1.68-5.56-3.36-8.23-1.86-3.03-2.41-6.25-3.14-9.66-.76-3.22-1.46-6.62-2.05-10.02-.91-5.01-2.04-9.84-2.59-15.04-.37-4.46-.37-9.47 2.23-13.43 1.14 0 2.24-.18 3.55.19 1.87.55 3.55 1.79 5.02 3.04 2.6 1.98 4.83 4.28 7.25 6.44 5.6 4.83 11.38 15.41 17.67 16.47 1.46-1.24 2.6-2.67 3.73-4.28 1.68 1.1 3.37 1.98 5.38 2.16 1.13.19 2.05-.18 3-.73 1.68-.88 2.05-.73 3.73.19 1.47.73 3.15.88 4.47-.18.55-.37 1.13-1.25 1.87-1.25.55 0 1.47 1.25 1.87 1.43 1.32 1.1 2.78 1.1 4.28.73.91-.18 1.32-.55 2.23-.73.55 0 1.47 0 1.87-.36 3.15-3.4 6.15-6.99 9.3-10.21 3.55-3.77 7.61-7.54 12.66-9.48 3-1.25 6.88-1.61 8.2 1.79 1.03 3.04.66 6.58.29 9.84m1.87-9.47c-1.86-7.68-10.79-4.83-15.62-1.61-4.28 2.85-8.01 6.62-11.38 10.39-1.46 1.61-3 3.4-4.65 5.2l-1.87 2.16c.19-.18-1.31.18-1.86.18-1.31.19-2.23 1.25-3.55.73-.76-.37-1.31-1.1-1.86-1.61-1.13-.88-2.78-.88-3.91 0-.91.88-1.46 1.61-3 1.24-1.13-.36-2.23-1.09-3.37-1.24-1.13-.19-2.05.55-2.78.87-2.23 1.43-5.23-.55-6.88-1.79-.55-.36-1.31-.36-1.68.18-.91 1.43-1.68 2.53-2.78 3.77-5.01-2.52-8.56-7.17-11.93-11.27-3.15-3.58-6.7-6.8-10.24-9.84-1.68-1.42-3.55-2.85-5.78-3.77-2.05-.87-3.55-.73-5.6-.73-1.68 0-2.42 2.53-3 3.77-.92 2.31-1.32 5.2-1.32 7.69 0 5.38 1.13 10.72 2.23 16.1.77 3.22 1.13 6.62 1.87 9.84.76 3.58 1.13 7.32 2.59 10.72 1.46 3.4 3.37 6.44 4.468 10.03.77 2.53 1.69 5.02 2.23 7.54.77 2.67 1.46 5.2 2.6 7.54 2.415 4.83 5.23 9.84 8.93 13.76 3.55 3.77 9.48 3.04 13.94 5.2 4.28 3.04 8.93 6.08 14.16 6.81 5.38.55 10.43-3.22 14.894-6.62 3.55-1.61 7.46-1.61 11.16-2.86 3.73-1.24 5.78-5.38 7.46-8.41 2.6-4.65 4.65-8.96 5.97-14.12 1.097-4.28 1.536-8.67 1.756-13.1.04-.76.472-2.63.472-2.63 2.6-6.8 4.462-13.76 6.15-20.93 1.83-7.79 3.84-16.03 2.19-23.16" fill="#131741"/><path d="M147.61 205.555c-.55-1.793-1.867-3.037-3.733-3.403-1.464-.366-3 0-4.28-.183.182-1.25 1.133-5.2-1.685-4.83-1.463 0-3 4.28-3.915 5.37-1.463 2.16-2.415 1.61-2.598-.88-.37-2.53.91-5.93-1.14-6.44-1.47-.19-2.6 2.67-3.15 4.46-.19.88-1.14 1.61-.77-4.65 0-1.61 0-5.93-.92-6.08h-.37c-2.6.18-4.47 10.21-5.24 13.06-.55-2.86-3.55-15.04-5.78-12.37-.55 1.61-.18 2.3-.37 3.91 0 .87-.19 6.99-.92 5.92-.37-1.79-2.42-5.38-3.55-4.83-2.05 1.79-.37 4.28-.91 6.8-.37 2.52-1.32 3.03-2.6.73-.77-1.1-2.05-5.38-3.55-5.57-2.6-.37-1.87 3.58-1.87 4.83-1.32 0-2.78-.37-4.28-.19-1.87.36-3.15 1.43-3.92 3.22-.18.36 0 13.76 12.29 13.98 2.05 0 3.55-.18 5.23-.88 1.13-.37 2.05-1.25 3-.55l12.66.88c.92-.73 1.87-1.25 2.78-.88 1.68.73 4.09 1.97 6.14 1.97 6.33 0 11.93-2.53 13.76-8.24.58-.22-.19-4.87-.37-5.23" fill="#EDA65B"/><path d="M95.906 207.53s7.83-.73 9.88.367c4.098 1.976 4.646 6.44 4.646 5.928 0 0-2.415.878-3.146.878-1.318.183-3 .366-3.916.366-6.33-.74-7.464-7.54-7.464-7.54m49.104 1.06s-7.61-1.1-9.878-.19c-4.282 1.79-5.013 6.25-5.013 5.7 0 0 2.41.88 3 1.1 2.04.55 3 .55 3.91.55 6.47-.37 7.97-7.18 7.97-7.18" fill="#FEFEFE"/><path d="M130.485 213.97c.55.184 2.415.88 3 1.1 1.464.365 2.415.548 3.367.548h.366c5.598-.183 7.464-5.928 7.61-6.806-.768-.183-4.098-.55-6.513-.55-1.463 0-2.415.184-3 .367-3.513 1.39-4.647 4.64-4.83 5.34" fill="#FEFEFE"/><path d="M113.91 226.668c-.55-2.854.182-5.708.767-8.6 0 0 1.867-6.073 4.83-6.622 7.61-1.427 8.38 15.405 8.38 15.405-8.965 3.96-13.978-.18-13.978-.18" fill="#F37740"/><path d="M140.73 228.827c-.55-1.244-2.78-2.305-4.464-2.525-3.55-.367-15.624 2.305-15.624 2.305l-.037.11c-1.573-.44-12.367-3.33-15.624-3-1.68.182-4.09 1.097-4.64 2.304-.91 1.8.19 4.14 1.14 6.08 1.14 2.16 3.74 5.38 6.33 6.99 1.14.73 2.24 1.1 3.37 1.1 9.3.19 9.88-5.34 9.88-5.16l.15-.95.04.04c.37 0-.77 5.71 8.38 5.71 1.13 0 2.23.37 3.37-.18 2.6-1.61 5.38-4.64 6.52-6.8.88-1.86 2.2-4.02 1.24-6" fill="#EDA65B"/><path d="M113.726 227.034c.366-1.098 7.464.183 7.464.183s6.148-1.427 7.062.183c.183.366-.768 1.61-.768 1.61s-2.598-.183-3.147.366c-.768.732-1.134 4.135-.915 4.135.183 0-1.317 1.8-2.05 1.8-.547 0-2.23-1.24-2.048-1.42.183-.18-.183-3.77-1.134-4.46-.55-.55-2.598.19-3.366-.18-.366-.58-1.098-2.19-1.098-2.19" fill="#CF4B27"/><path d="M107.103 213.788c-.915.366-2.78.366-3.55.366-2.414-.183-4.28-1.427-5.598-3.586-.585-.878-.95-1.793-1.134-2.525.96 0 2.42-.183 4.29-.366.48 0 .84 0 1.25.037-.18 1.427-.47 5.086.99 4.83 1.39-.256 1.72-3.037 1.83-4.39.11.036.19.072.22.072 2.6 1.244 3.73 3.732 4.1 4.83-.91.366-2.01.732-2.37.732m-1.13-6.623c-.91-.366-2.41-.55-5.01-.55s-5.05.184-5.23.184H95v.73s1.462 7.32 8.195 8.05c.185 0 3.15 0 4.28-.19.55-.19 3.55-.88 3.55-.88s0-5.57-5.05-7.36m36.81 4.46c-1.132 2.85-5.962 3.4-6.145 3.4-.77 0-1.866-.19-3.147-.55-.366-.19-1.317-.51-2.232-.88.37-1.1 1.69-3.41 4.28-4.47.04 1.39.33 4.06 1.69 4.32 1.32.25 1.28-3.19 1.17-4.69 2.05 0 4.43.18 5.71.36-.18.73-.95 1.43-1.32 2.49zm2.6-3.77c-.183 0-3.88-.55-6.88-.55-1.682 0-2.597.18-3.365.36-3.147 1.24-4.684 3.95-5.233 5.38l-.33 1.64 3.695 1.24c1.463.37 2.597.55 3.55.55l.584-.04c6.694-.37 8.56-7.69 8.56-7.69l.183-.73-.77-.18z" fill="#131741"/><path d="M87.125 218.435c1.134 2.854 3.147 5.013 5.964 6.44 1.86 1.098 3.55-1.793 1.68-2.854-1.87-1.06-3.55-2.52-4.28-4.46-.77-1.97-4.14-1.1-3.37.88m60.85 6.44c2.05-1.43 4.28-2.67 5.6-5.01 1.13-1.79-1.87-3.58-3-1.61-.92 1.61-2.78 2.67-4.47 3.77-.77.55-1.14 1.43-.55 2.31.36.77 1.68 1.1 2.41.55" fill="#EDA65B"/><path d="M113.36 242.62c-.366 0-.768-.365-.768-.73 0-.367.183-.733.768-.733 6.696-.548 7.245-4.464 7.464-4.647 0-.366.366-.73.77-.548.365 0 .767.365.767.73 0 .184 0 3.917 7.07 4.136.37 0 .77.366.77.732s-.36.732-.77.732c-3.55 0-5.96-1.098-7.46-2.854-.18-.183-.36-.55-.36-.732-1.35 1.573-3.58 3.55-8.23 3.915" fill="#131741"/><path d="M128.07 227.583c.183.365-.768 1.61-.768 1.61s-2.598-.184-3.147.365c-.77.733-1.134 4.136-.915 4.136.183 0-1.317 1.793-2.05 1.793-.548 0-2.23-1.245-2.048-1.427.183-.184-.183-3.77-1.134-4.465-.55-.548-2.598.183-3.367-.183-.54-.183-1.13-1.793-1.13-1.793" fill="#CF4B27"/><path d="M121.19 236.18c-.914 0-3-2.304-2.78-2.524 0-.732-.366-3.22-.768-3.77h-1.318c-.768 0-1.463.184-1.866-.182-.768-.365-1.317-1.61-1.463-2.158-.183-.366 0-.732.366-.88.37-.18.77 0 .92.367.19.732.77 1.427.92 1.427h1.14c.92 0 1.69-.183 2.23.366 1.14.878 1.32 3.915 1.32 4.135v.74c.37.37.92.73 1.32.88.37-.18.92-.87 1.32-1.24 0-.36 0-.88.19-1.79.37-1.97.92-2.52 1.14-2.67.55-.55 2.23-.55 3.37-.55.18-.36.37-.55.37-.73 0-.36 0-.55.37-.73.37-.18.77-.18.92.18.19.19.55.88-.91 2.53-.18.19-.36.37-.55.19-1.13 0-2.41 0-2.59.19-.37.37-.77 2.53-.77 3.22v.37c-.22.51-1.72 2.49-2.82 2.67" fill="#131741"/><path d="M80.43 204.31c3.146-2.853 5.012-9.11 5.78-14.123-.183.732 5.38.878 8.562-2.525 2.233-2.305.915-4.134-.365-6.988-3.55-7.32-9.477-13.063-15.26-18.442-1.462-1.427-3-5.013-5.597-4.135-2.05.732-1.866 6.623-1.464 8.416 2.196 15.44 8.343 37.798 8.343 37.798m77.24-1.61c-3-2.85-6.15-8.78-6.7-13.61 0 .73-5.38.73-8.38-2.67-2.05-2.3-.77-3.91.77-6.44 3.91-6.62 10.06-11.82 15.99-16.83 1.68-1.24 3.36-3.04 5.78-1.97 2.05.88 1.46 4.83 1.13 6.44-3.04 17.2-8.6 35.09-8.6 35.09" fill="#FEFEFE"/><path d="M158.037 179.43c-4.098 1.06-8.562 3.365-10.538 7.207-.88-4.537 3.4-9.623 7.02-12.038 1.13-.74 0-2.53-1.14-1.8-4.47 3.22-9.15 9.29-7.83 14.85.18.62.76.77 1.24.69l-.15.58c-.19 1.24 1.86 1.79 2.05.55.91-4.47 5.6-6.99 9.88-8.05 1.31-.4.73-2.38-.55-2.01m-74.63-4.81c-1.14-.74-2.05.87-1.14 1.79 2.96 2.08 6.54 6.33 7.02 10.24-1.94-3.84-6.3-6.15-10.54-7.21-1.32-.37-1.87 1.61-.55 1.97 4.28 1.1 8.93 3.58 9.88 8.05.22.77 1.1.88 1.61.55.51.33 1.32.22 1.54-.55 1.46-5.56-3.37-11.82-7.83-14.86" fill="#EF652A"/><path d="M92.32 188.76c-.914.55-2.048.878-3.146 1.098-.366 0-2.05 0-2.05.183-.182-.73-1.462-.87-1.682 0-.768 4.29-1.866 9.12-4.647 12.52-3.147-11.63-5.964-23.6-7.83-35.45-.366-1.97-.55-10.72 3.146-6.99l3.55 4.14c1.69 1.61 3.37 3.41 5.02 5.02 3.55 3.59 6.52 7.69 8.75 12.15.55 1.1 1.14 1.98 1.32 3.04.95 1.8-.91 3.41-2.41 4.32m1.32-11.12c-3.15-5.37-7.61-9.84-12.11-14.12l-4.83-5.38c-.91-.87-2.78-1.24-3.91-.18-2.41 2.16-1.86 6.81-1.46 9.66.77 5.56 1.87 10.94 3.15 16.29 1.47 6.99 3.15 13.76 5.02 20.57 0 .37.36.55.55.55.18.18.55 0 .91-.18 3.55-3.4 5.01-8.6 5.78-13.43 2.23.37 5.97-1.24 6.88-1.79 5.45-3.04 2.45-8.01.04-11.97m71.83-11.46c-.77 8.05-3.14 16.29-5.23 24.19-.91 3.59-1.86 7.18-3 10.58-3-3.4-4.83-7.68-5.6-12.15-.18-.88-1.46-.73-1.68 0 .19-.55.37-.36-.36-.18-.77 0-1.46-.18-2.23-.36-2.05-.55-5.01-1.98-5.23-4.28-.18-1.61 1.69-3.77 2.6-5.2 1.32-1.97 2.78-3.76 4.28-5.56 2.78-3.03 5.78-5.56 8.93-8.23 1.32-1.1 2.6-2.3 4.28-3.22 3.48-1.83 3.48 2.67 3.26 4.43m-2.38-6.26c-1.68.18-3.15 1.43-4.28 2.53-2.23 1.98-4.46 3.77-6.7 5.71-4.1 3.77-7.46 7.87-10.24 12.51-2.23 3.77-.36 6.8 3.55 8.6.77.36 3.37 1.24 5.02 1.09.92 4.83 3.37 9.48 6.7 12.88.37.19.55.19.92.19.18 0 .37-.18.55-.55 2.05-6.44 3.73-13.06 5.38-19.68 1.32-5.38 2.6-11.08 3.37-16.65.22-3.03 0-6.8-4.24-6.62" fill="#131741"/><path d="M94.004 241.157c-3.366 10.575-10.245 16.65-11.526 27.59" fill="#EF652A"/><path d="M92.906 241.01c-3.147 9.66-10.245 17.528-11.526 27.737-.183 1.244 1.244 3.842 2.05 0 1.316-10.026 8.56-17.893 11.525-27.224.33-1.244-1.683-1.756-2.05-.512m53.972 1.07c3.915 8.78 9.88 16.47 12.294 25.76.37 1.25 2.71.7 2.53-.55-2.41-9.47-9.04-17.34-13.13-26.27-.4-1.1-2.26-.18-1.68 1.06m-22.23 142.45c-.51 0-.95-.39-1-.91-.01-.16-1.48-16.7-1.62-33.31l-.06-6.6c-.08-9.4-.15-16.19.15-18.08.03-.13.06-.43.11-.85.51-4.32 1.01-7.41 1.77-8.42 3.08-4.03 3.42-16.36 3.52-20.41.03-.99.04-1.47.07-1.73.07-.55.56-.95 1.11-.89.56.06.95.56.89 1.11-.02.19-.04.83-.06 1.57-.21 7.93-.85 17.55-3.93 21.58-.27.37-.73 1.96-1.37 7.44-.05.46-.09.79-.11.94-.28 1.73-.21 8.8-.12 17.74.02 2.09.04 4.3.06 6.61.13 16.53 1.6 32.99 1.61 33.15.05.56-.35 1.05-.91 1.1h-.09" fill="#131741"/><path d="M148.63 371.656c-.43 0-.828-.278-.96-.71-.057-.184-1.376-4.597-1.41-14.254-.04-10.843 4.314-23.897 7.196-32.535.816-2.448 1.522-4.563 1.95-6.108 4.498-16.21 6.496-46.74 3.504-53.56-.223-.51.01-1.1.518-1.33.508-.23 1.102.01 1.325.51 3.183 7.26 1.272 38.05-3.407 54.9-.443 1.59-1.156 3.73-1.98 6.2-2.84 8.51-7.133 21.38-7.095 31.89.04 9.31 1.31 13.63 1.33 13.67.16.53-.14 1.09-.67 1.25-.1.03-.19.05-.29.05m-30.71 11.28h-.06c-.55-.04-.97-.51-.94-1.07.02-.3 1.86-29.76 1.89-30.17.15-2.6.11-3.63.07-4.93-.03-.88-.07-1.87-.05-3.5l.02-2.18c.08-10.19.18-21.74-.78-23.29-2.25-3.68-3.33-14.37-3.95-22.09-.05-.64-.08-1.09-.11-1.3-.06-.56.34-1.05.89-1.12.55-.06 1.05.34 1.11.89.03.22.07.69.12 1.36.93 11.61 2.16 18.74 3.66 21.19 1.2 1.95 1.19 10.11 1.07 24.36l-.01 2.18c-.01 1.58.02 2.55.06 3.4.05 1.3.09 2.42-.06 5.11-.03.42-1.81 28.97-1.89 30.18-.03.53-.47.94-1 .94M92 376.72c-.084 0-.17-.01-.257-.03-.536-.14-.856-.69-.715-1.23.024-.083 2.265-8.67 2.3-18.04.03-8.535-3.227-18.85-5.844-27.13-1.542-4.88-2.874-9.1-3.17-11.86-.544-5.07-1.217-9.59-1.867-13.95-2.256-15.14-4.038-27.1 2.162-46.597.16-.53.73-.82 1.26-.655.53.17.82.733.65 1.262-6.06 19.053-4.31 30.81-2.09 45.69.65 4.387 1.33 8.92 1.88 14.04.27 2.56 1.58 6.688 3.09 11.47 2.65 8.42 5.96 18.895 5.93 27.745-.04 9.64-2.27 18.19-2.37 18.55-.12.45-.53.75-.97.75" fill="#131741"/><path d="M119.773 374.14c-2.74-6.44-8.563-2.316-10.39-3.29-2.758-1.472-3.198-2.583-6.664-2.402-3.47.18-4.6 1.583-6.28 1.912-.55.106-2.65-.652-3.73-.285-2.5.842-4.43 2.51-4.93 5.803-.14.892-.03 4.598.07 5.496l.58 3.243s.29 1.748 2.8 2.21c3.86.712 5.77-1.088 5.77-1.088s2.56 2.72 8.07 1.31c1.19-.31 1.73-1.28 2.43-1.26.66.01 1.35.94 2.66 1.2 2.66.51 5.29.55 6.81-.27 1.88-1.02 2.34-3.01 2.34-3.01s1.46-7.15.43-9.58" fill="#EDA65B"/><path d="M97.028 384.738c.268 0 .534.104.73.312.05.05 1.407 1.4 4.307 1.4.875 0 1.812-.126 2.782-.374.417-.107.736-.346 1.075-.6.432-.322.923-.69 1.59-.69.01 0 .033 0 .04.002.584.013 1.048.31 1.497.596.39.254.81.517 1.33.62 1.19.23 2.35.35 3.33.35 1.21 0 2.18-.177 2.8-.513 1.44-.77 1.83-2.32 1.83-2.34.53-2.62 1.14-7.4.48-8.96-1.17-2.74-2.86-3.09-4.19-3.09-.85 0-1.74.17-2.52.32-.71.14-1.38.26-1.97.26-.5 0-.92-.09-1.27-.28-.75-.39-1.32-.76-1.83-1.09-1.23-.78-1.9-1.21-3.66-1.21-.21 0-.42.01-.65.02-2.01.11-3.14.66-4.14 1.14-.65.32-1.26.61-2.01.76-.38.08-.86-.01-1.53-.14-.54-.1-1.16-.22-1.65-.22-.24 0-.36.03-.42.05-2.51.85-3.86 2.44-4.25 5-.11.74-.02 4.23.08 5.2l.58 3.21c.02.1.29 1.09 2 1.4.54.1 1.07.15 1.57.15 2.21 0 3.29-.95 3.33-.99.19-.17.44-.26.68-.26m5.04 3.73c-2.54 0-4.22-.86-5.09-1.46-.76.44-2.09 1.01-3.97 1.01-.63 0-1.28-.06-1.94-.18-3.17-.58-3.6-2.93-3.62-3.03l-.58-3.23-.01-.06c-.1-.89-.23-4.71-.07-5.76.5-3.3 2.38-5.52 5.59-6.6.3-.1.65-.15 1.06-.15.68 0 1.43.15 2.03.27.29.05.65.12.8.13.47-.1.92-.31 1.47-.58 1.12-.54 2.5-1.21 4.91-1.34.27-.01.52-.02.75-.02 2.34 0 3.4.68 4.74 1.53.47.31 1.02.65 1.69 1.01 0 0 .08.04.32.04.4 0 .98-.11 1.59-.22.87-.16 1.86-.35 2.89-.35 2.82 0 4.8 1.42 6.04 4.32 1.12 2.64-.21 9.41-.37 10.18-.03.12-.59 2.47-2.85 3.69-.93.5-2.2.75-3.76.75-1.13 0-2.38-.13-3.72-.39-.91-.17-1.56-.59-2.04-.9-.15-.09-.34-.21-.45-.26-.1.05-.26.18-.39.28-.41.31-.98.73-1.78.94-1.14.29-2.24.44-3.28.44" fill="#131741"/><path d="M102.514 377.663c-.637.367-.862 3.77.152 5.283" fill="#EDA65B"/><path d="M102.667 383.953c-.324 0-.642-.157-.837-.446-.983-1.466-.995-3.968-.69-5.277.17-.728.455-1.2.872-1.44.482-.276 1.097-.11 1.374.37.244.424.145.95-.21 1.26-.268.587-.35 2.957.326 3.966.31.462.186 1.087-.276 1.397-.172.115-.366.17-.56.17" fill="#131741"/><path d="M112.584 378.335c-.972 1.307-.618 3.975 0 5.172" fill="#EDA65B"/><path d="M112.584 384.514c-.365 0-.717-.2-.895-.547-.77-1.474-1.17-4.543.08-6.232.33-.447.96-.538 1.41-.21.44.334.54.964.21 1.41-.66.892-.42 3.125.08 4.11.25.495.06 1.1-.44 1.356-.15.08-.31.12-.46.12" fill="#131741"/><path d="M93.085 377.663c-.584 1.03-.536 3.16 0 5.463" fill="#EDA65B"/><path d="M93.084 384.133c-.457 0-.87-.314-.98-.778-.297-1.28-.883-4.444.106-6.188.274-.483.89-.652 1.37-.38.485.275.654.89.38 1.373-.352.62-.456 2.327.105 4.738.126.54-.21 1.082-.752 1.21-.077.016-.153.025-.23.025" fill="#131741"/><path d="M122.77 374.14c2.74-6.44 8.562-2.316 10.39-3.29 2.757-1.472 3.197-2.583 6.663-2.402 3.467.18 4.59 1.583 6.28 1.912.547.106 2.642-.652 3.727-.285 2.495.842 4.423 2.51 4.923 5.803.135.892.025 4.598-.076 5.496l-.585 3.243s-.295 1.748-2.805 2.21c-3.865.712-5.77-1.088-5.77-1.088s-2.558 2.72-8.072 1.31c-1.193-.31-1.736-1.28-2.433-1.26-.663.01-1.353.94-2.668 1.2-2.66.51-5.288.55-6.807-.27-1.885-1.02-2.34-3.01-2.34-3.01s-1.462-7.15-.428-9.58" fill="#EDA65B"/><path d="M135.03 384.786c.667 0 1.157.368 1.59.69.338.253.657.493 1.075.6.97.248 1.906.373 2.782.373 2.9 0 4.258-1.35 4.315-1.41.383-.39 1.018-.41 1.416-.04.036.03 1.12.98 3.326.98.502 0 1.03-.05 1.57-.15 1.706-.32 1.975-1.3 2-1.41l.576-3.2c.1-.94.19-4.48.077-5.2-.388-2.57-1.74-4.16-4.25-5-.052-.02-.177-.05-.418-.05-.5 0-1.11.12-1.65.22-.67.13-1.15.22-1.53.14-.75-.15-1.36-.44-2.01-.76-1-.49-2.13-1.04-4.14-1.14-.23-.02-.45-.02-.65-.02-1.76 0-2.44.43-3.66 1.21-.51.32-1.09.69-1.83 1.09-.35.18-.77.27-1.27.27-.59 0-1.26-.13-1.97-.26-.79-.15-1.67-.32-2.52-.32-1.34 0-3.02.35-4.19 3.09-.67 1.56-.06 6.34.48 8.98 0 0 .4 1.55 1.83 2.32.62.33 1.59.51 2.8.51.98 0 2.14-.12 3.33-.35.52-.11.94-.37 1.34-.62.44-.29.91-.59 1.49-.6h.04m5.45 3.68c-1.05 0-2.15-.15-3.28-.44-.81-.21-1.37-.63-1.78-.94-.13-.1-.3-.22-.4-.28-.11.05-.3.17-.45.26-.48.3-1.14.72-2.04.9-1.34.25-2.59.38-3.72.38-1.56 0-2.83-.26-3.76-.76-2.26-1.22-2.83-3.57-2.85-3.67-.16-.79-1.5-7.56-.37-10.2 1.23-2.91 3.21-4.32 6.04-4.32 1.03 0 2.02.18 2.89.35.61.11 1.19.22 1.59.22.24 0 .31-.04.31-.04.67-.36 1.21-.71 1.69-1.01 1.34-.86 2.39-1.53 4.74-1.53.23 0 .48 0 .75.02 2.41.12 3.79.79 4.91 1.34.55.26 1 .48 1.46.58.15-.01.51-.08.8-.14.6-.12 1.35-.26 2.03-.26.41 0 .75.05 1.06.15 3.21 1.09 5.1 3.31 5.6 6.61.16 1.05.03 4.87-.07 5.76l-.01.06-.59 3.24c-.02.09-.45 2.44-3.62 3.02-.66.12-1.31.18-1.94.18-1.89 0-3.22-.56-3.97-1-.86.6-2.54 1.46-5.08 1.46" fill="#131741"/><path d="M140.028 377.663c.637.367.862 3.77-.152 5.283" fill="#EDA65B"/><path d="M139.875 383.953c-.193 0-.387-.055-.56-.17-.46-.31-.584-.935-.275-1.397.677-1.01.594-3.38.325-3.966-.354-.31-.452-.836-.21-1.26.278-.48.893-.647 1.375-.37.417.24.703.712.872 1.44.305 1.31.293 3.81-.69 5.277-.194.29-.513.446-.837.446" fill="#131741"/><path d="M129.958 378.335c.97 1.307.617 3.975 0 5.172" fill="#EDA65B"/><path d="M129.958 384.514c-.155 0-.313-.036-.46-.113-.494-.25-.688-.86-.434-1.35.508-.98.75-3.22.087-4.11-.33-.44-.23-1.07.21-1.41.45-.33 1.08-.24 1.41.21 1.26 1.69.85 4.76.09 6.23-.18.35-.53.55-.89.55" fill="#131741"/><path d="M149.457 377.663c.584 1.03.536 3.16 0 5.463" fill="#EDA65B"/><path d="M149.458 384.133c-.075 0-.152-.01-.23-.026-.54-.127-.877-.668-.75-1.21.56-2.41.456-4.116.104-4.737-.274-.484-.105-1.098.38-1.372.483-.274 1.096-.104 1.37.38.99 1.743.403 4.907.105 6.187-.108.464-.522.778-.98.778m51.008 1.67c-8.677 0-20.352-2.736-24.76-5.39-2.9-1.743-12.427-8.22-13.25-18.34-.294-3.615 1.18-7.76 3.216-9.05 3.11-1.96 7.32-1.434 10.03 1.252 7.05 6.98 22.96 10.663 30.96 7.163.51-.224 1.1.01 1.33.517.22.51-.01 1.103-.52 1.327-9.54 4.172-26.21-.678-33.18-7.577-2.05-2.032-5.22-2.445-7.53-.98-1.26.798-2.53 4.11-2.28 7.186.75 9.17 9.59 15.16 12.29 16.78 4.2 2.53 17.75 5.77 26.52 4.99 10.33-.92 16.64-3.15 18.26-6.45 2.46-5.02 2.9-9.7 1.22-13.16-1.21-2.51-3.45-4.24-6.29-4.86-1.53-.33-3.55-.33-5.88-.34-7.79-.01-19.56-.04-30.24-12.97-.35-.43-.29-1.06.14-1.41.43-.36 1.06-.29 1.42.14 10.08 12.2 20.84 12.23 28.7 12.25 2.45.01 4.56.01 6.3.39 3.41.74 6.21 2.91 7.69 5.95 1.95 4.03 1.51 9.33-1.22 14.92-1.97 4.03-8.66 6.58-19.88 7.58-.93.09-1.93.12-2.96.12" fill="#131741"/><path d="M90.28 308.642c-.07.12-12.667 3.55-19.387 2.03-4.84-1.1-10.12-3.16-12.07-7.73-1.72-4.05-.19-8.78 2.1-12.55 1.11-1.84 2.46-3.62 4.35-4.63 1.89-1.02 5.29-1.07 6.61.61 3.58 4.54 10 6.08 15.72 5.21 5.71-.88 10.9-3.77 15.85-6.76 4.95-2.98 9.9-6.16 15.47-7.72 6.16-1.71 12.71-1.33 19.05-.52 3.46.45 6.98 1.05 10.07 2.67 3.09 1.62 5.73 4.45 6.32 7.89.2 1.17.15 2.41-.31 3.51-.78 1.87-2.67 3.11-4.65 3.53-5.87 1.25-11.13-3.7-16.96-5.14-7.67-1.88-15.44 2.52-21.54 7.53-6.08 5.01-13.063 9.82-20.623 12.07" fill="#445AA8"/><path d="M65.705 310.148c24.158 5.494 39.118-8.566 45.198-13.576 6.1-5.01 13.87-9.41 21.54-7.53 5.83 1.44 11.09 6.39 16.96 5.14 1.98-.42 3.87-1.66 4.65-3.53.46-1.1.51-2.34.31-3.51-.59-3.44-3.23-6.27-6.32-7.89-3.09-1.62-6.61-2.22-10.07-2.67-6.34-.81-12.89-1.19-19.05.52-5.57 1.56-10.52 4.74-15.47 7.72-4.95 2.99-10.14 5.88-15.85 6.76-5.72.87-12.256-.58-15.72-5.21-3.103-4.147-9.393-4.813-13.06-1.98M17.92 153.218v-56.99m3.507-.582c-.62-1.997-1.243-4.013-1.436-6.095-.19-2.08.08-4.26 1.14-6.06.8-1.35 2-2.41 3.3-3.29 2.21-1.48 3.21-2.34 5.83-1.86M10.63 90.8c-.685-3.55.363-7.395 2.754-10.107 2.393-2.71 6.075-4.23 9.683-3.995" stroke="#121740" stroke-width="2.2" stroke-linecap="round"/><path d="M144.61 281.278c-.677.008-1.347-.154-2.024-.144-.677.01-1.413.24-1.762.82-.53.88.093 2.007.808 2.746 1.154 1.19 2.61 2.088 4.19 2.584.518.16 1.095.278 1.59.06.607-.27.91-.97.974-1.63.186-1.99-1.6-3.937-3.6-3.92m37.854 33.113l-1.275-4.518c-.167-.6-.335-1.23-.153-1.82.182-.59.867-1.07 1.42-.79.967 1.72 1.533 3.66 1.64 5.64" fill="#9DA3CC"/><path d="M187.328 311.21c-.37-.825-.477-1.764-.306-2.653.13-.68.69-1.46 1.344-1.232.252.09.43.312.588.53.525.73.97 1.52 1.316 2.348m5.508-4.13c-.12-2.894-.24-5.788-.362-8.682-.018-.43.05-.98.47-1.09.452-.11.776.43.924.87.697 2.09 1.22 4.24 1.563 6.42" fill="#0E173D" opacity=".506"/><path d="M201.902 301.47c-.04-2.965-.416-5.925-1.12-8.805-.463-1.902-1.05-3.997-.147-5.734.428-.82 1.507-1.5 2.25-.94.33.25.48.66.604 1.05 1.14 3.64 1.43 7.55.83 11.31" fill="#9DA3CC"/><path d="M214.842 288.917c.886-3.876-1.586-7.666-2.167-11.6-.104-.7-.074-1.56.53-1.925.453-.273 1.065-.13 1.47.21.403.34.642.833.844 1.32 1.32 3.206 1.57 6.742 1.78 10.206" fill="#9EA2CA"/><path d="M108.937 171.86c-1.102-.077-2.25-.08-3.26.37-1.01.448-1.844 1.46-1.762 2.563.123 1.652 2.024 2.504 3.652 2.814 1.063.202 2.184.322 3.212-.02 1.02-.343 1.93-1.26 1.94-2.343.02-1.694-1.89-2.655-3.49-3.207" fill="#9EA2CB"/><path d="M115.335 176.417c-.373-.193-.556.48-.413.876.32.88.89 1.748 1.775 2.058.885.31 2.067-.21 2.15-1.14.08-.89-.778-1.56-1.537-2.03-.635-.4-1.44-.81-2.093-.44-.005.38-.01.76-.017 1.14" fill="#9D9EC5"/><path d="M169.188 94.882c-1.477-.44-2.98-.884-4.522-.877-1.54.006-3.154.53-4.13 1.724-.34.41-.596.92-.59 1.45.016 1.03 1.008 1.81 2.01 2.08 1 .26 2.063.18 3.08.37 1.2.22 2.29.82 3.42 1.28 1.13.46 2.387.79 3.56.46 1.174-.33 2.17-1.54 1.888-2.72-.216-.91-1.054-1.51-1.84-2.01-1.257-.81-2.537-1.57-3.84-2.3" fill="#9EA2CB"/><path d="M252.085 145.997c-.07-.386-.67-.13-.892.193-1.843 2.68-2.92 5.882-3.075 9.13-.045.953.01 1.977.578 2.742.568.765 1.818 1.08 2.482.395.57-.588.447-1.528.403-2.346-.09-1.64.32-3.31 1.15-4.73.53-.9 1.22-1.71 1.65-2.66.43-.95.53-2.15-.11-2.98-.63-.83-2.16-.89-2.62.05" fill="#0D173D" opacity=".506"/><path d="M260.657 144.61c-1.542 2.14-1.507 4.82-1.77 7.445-.107 1.077-.087 2.214.412 3.175.49.96 1.59 1.68 2.64 1.45 1.7-.37 2.09-2.592 2.11-4.335l.04-3.826c.01-1.12 0-2.3-.6-3.24-.6-.94-2.04-1.43-2.86-.67" fill="#9EA2CB"/><path d="M234.893 146.843c-2.685 1.952-4.57 4.973-5.142 8.243-1.21.046-2.1-1.31-2.02-2.523.08-1.214.8-2.276 1.51-3.268l2.45-3.456c.55-.78 1.36-1.66 2.28-1.42.36.09.66.34.87.65.89 1.24 1.54 1.37.07 1.77m-16.6-7.62c.12.03.16.2.08.29-2.08-.13-4.21.7-5.65 2.21-1.44 1.5-2.19 3.66-1.99 5.73.03.24.07.49.19.71.3.52 1.03.66 1.59.45.57-.21.99-.69 1.33-1.18 1.16-1.64 1.93-3.81 3.8-4.54.64-.25 1.35-.3 1.98-.57.63-.28 1.2-.91 1.06-1.58-.18-.87-1.31-1.1-2.2-1.13-.07-.33-.71.2-.78-.12m-7.08-4.69c-2.5-.67-5.35.24-7 2.24-.19.23-.37.5-.41.8-.06.61.56 1.13 1.17 1.18.62.04 1.21-.25 1.74-.57.53-.33 1.05-.69 1.66-.82.73-.15 1.49.07 2.23.08.75 0 1.62-.35 1.75-1.09.17-.93-.87-1.55-1.65-2.08m-6.1-6.46c-1.06-.51-2.3-.23-3.44.05-.72.18-1.46.36-2.08.78-.61.41-1.1 1.11-1.05 1.85.02.22.08.45.23.62.22.25.58.33.92.33 1.97 0 3.44-2.15 5.4-2.12.43.01.93.1 1.21-.22.25-.27.18-.71-.05-1-.22-.28-.57-.44-.9-.59m63.28 119.71c3.19 4.55 5.12 9.98 5.53 15.52.1 1.32.03 2.84-1 3.67-1.05.84-2.7.52-3.66-.41-.97-.93-1.37-2.31-1.56-3.64-.38-2.84.07-5.83-.95-8.51-.66-1.75-1.93-3.25-2.36-5.07-.26-1.1-.07-2.48.93-2.99 1.23-.61 2.59.48 3.53 1.48m-20.36 8.58c.5 2.48.87 4.98 1.09 7.5.1 1.19.18 2.4-.12 3.55s-1.03 2.25-2.13 2.71c-.19.08-.41.14-.61.1-.37-.07-.59-.43-.77-.76-1.21-2.28-1.96-4.79-2.21-7.35-.15-1.52-.09-3.16.79-4.41s2.82-1.83 3.97-.84m-10.87 8.25c-.6.21.15-.55.28.07l.93 4.38c.24 1.13.48 2.33.08 3.41-.39 1.08-1.68 1.92-2.71 1.41-.96-.48-1.16-1.73-1.24-2.8-.12-1.63-.24-3.26-.35-4.9-.05-.67-.09-1.41.29-1.97.63-.96 2.39-.71 2.74.39m-8.49 8.5c1.1 1.03.87 2.8.33 4.21-.65 1.7-2.383 2.7-4.03 3.473-.94.445-2.25.786-2.88-.04-.73-.95.27-2.21.86-3.26.547-.95.75-2.06 1.128-3.09.37-1.04.99-2.08 2.01-2.5 1.014-.416 2.443.12 2.583 1.21" fill="#9EA2CA"/><path d="M131.634 281.517c1.484.727 3.263.827 4.82.272.263-.1.538-.23.674-.47.195-.35.012-.82-.303-1.07-.314-.25-.724-.34-1.117-.42l-5.798-1.19c-1.495-.31-3.057-.61-4.527-.2-.43.12-.907.38-.938.83-.027.36.272.67.582.87 1.385.88 3.21.54 4.772 1.03.94.3 1.84.91 2.82.76" fill="#9897BD"/><path d="M68.457 290.627c-2.574.205-4.94 2.072-5.736 4.528-.14.437-.2.992.15 1.288.34.285.88.138 1.21-.168.33-.305.51-.727.76-1.09.76-1.092 2.12-1.582 3.42-1.883.35-.08.72-.162.99-.4.38-.336.45-.968.15-1.378-.3-.41-.92-.54-1.36-.285m4.71 2.26c-1.49.63-2.62 2.06-2.9 3.67-.03.21-.05.44.04.63.16.31.59.4.92.29.33-.11.59-.36.84-.61l1.25-1.24c.41-.41.84-.85.91-1.42.07-.57-.44-1.22-.99-1.05m3.63 1.14c-1.45 2.76-2.03 5.97-1.65 9.07.05.38.18.84.55.93.34.08.65-.2.85-.48 1.21-1.69.89-4 1.35-6.02.14-.61.36-1.22.29-1.84-.07-.62-.55-1.26-1.18-1.22m5.18.76c.36-.21.74.23.9.6.32.73.59 1.48.79 2.25.17.64.32 1.33.79 1.8.47.47 1.39.55 1.72-.03.13-.23.14-.5.15-.76.04-1.3 0-2.78-.96-3.67-.79-.74-1.96-.84-3.04-.9l-.03.49m5.53-.3c-.03-.14-.27-.04-.27.1.01.14.14.23.25.31 1.6 1.07 2.75 2.79 3.13 4.68.17.84.38 1.93 1.23 2.06.62.09 1.15-.45 1.4-1.02.68-1.59-.08-3.41-1.03-4.85-.78-1.17-1.85-2.34-3.26-2.44-.65-.05-1.45.33-1.41.98m8.46-2.66c-.06-.11-.25-.05-.29.07-.04.12.03.25.1.36.67.9 2.04.82 3.12.5 2.6-.77 4.93-2.44 6.49-4.66.15-.22.3-.45.32-.72.02-.27-.15-.56-.42-.59-.14-.02-.28.05-.41.11-1.05.54-1.99 1.27-3.04 1.79-1.71.85-3.66 1.14-5.3 2.12-.28.17-.57.372-.69.68-.12.31 0 .73.31.82" fill="#9DA0C6"/><path d="M71.276 281.134c-2.406-.124-3.91-2.982-6.295-3.32-.55-.077-1.2-.055-1.53-.503-.27-.37-.16-.92.13-1.29.71-.88 2.08-.8 3.17-.51 2.44.65 4.89 2.15 5.65 4.56.13.41.18.91-.15 1.19-.41.35-1.03.03-1.45-.3" fill="#9D9FC6"/><path d="M137.135 136.052c-.894.157-1.716-.68-1.885-1.572-.17-.892.13-1.8.427-2.657.23-.176.578-.096.79.102.21.197.315.48.408.752.43 1.257.743 2.73.016 3.842m.69-8.03c-1.63-1.29-2.94-2.98-3.77-4.88-.17-.39-.32-.8-.3-1.22.02-.42.23-.86.62-1.02.78-.32 1.49.55 1.86 1.3.69 1.39 1.31 2.82 1.86 4.27.21.55.41 1.17.16 1.7m4.81-9.21c-.74-1.61-.03-3.49-.15-5.25-.06-.92-.35-1.8-.65-2.67-.25-.74-.47-1.63.02-2.24.5-.61 1.52-.54 2.13-.03.61.5.89 1.29 1.09 2.05.3 1.19.45 2.43.44 3.66 0 1.03-.13 2.09-.62 2.99-.48.9-1.4 1.64-2.42 1.68m5.84-3.79c-.13-1.64.14-3.31.78-4.82.09-.22.2-.44.38-.58.33-.26.83-.17 1.14.1.31.27.47.68.54 1.09.31 1.72-.72 3.59-2.34 4.25" fill="#9D9EC4"/><path d="M166.457 116.747c-1.326-.302-2.51-1.177-3.19-2.355-.08-.14-.156-.293-.142-.453.043-.51.773-.53 1.253-.37 2.138.68 4.15 1.75 5.9 3.15.3.24.622.55.586.93-.035.36-.41.62-.775.66-.37.03-.73-.1-1.08-.23l-2.53-.96c-.28-.11-.6-.25-.68-.54" fill="#0D173D" opacity=".506"/><path d="M312.27 235.305c.13-.362-.423-.572-.802-.508-1.882.32-3.07 2.304-3.296 4.2-.462 3.867 1.972 7.508 4.818 10.166 1.858 1.736 4.318 3.317 6.787 2.71.77-1.25.336-2.903-.414-4.165s-1.79-2.364-2.31-3.738c-.6-1.596-.428-3.385-.896-5.026-.468-1.64-2.082-3.24-3.692-2.678" fill="#4458A7"/><path d="M231.215 167.04c-.908.005-1.38-1.066-1.572-1.954-.192-.887-.512-1.968-1.402-2.143-1.03-.204-1.76 1.04-1.85 2.09-.1 1.212.21 2.487 1 3.41.8.925 2.1 1.435 3.28 1.13.19-.05.4-.13.5-.298.11-.164.1-.374.08-.567-.12-1.055-.56-2.072-1.24-2.885" fill="#9EA2CA"/><path d="M220.94 166.25l-.966-3.954c-.305-1.247-.628-2.532-1.403-3.554-.77-1.023-2.13-1.72-3.35-1.33-.02 1.974-.02 4.023.8 5.82.82 1.794 2.73 3.26 4.67 2.91l.04-2.528" fill="#10173F" opacity=".506"/><path d="M275.83 142.663c-1.277-.208-2.564.562-3.292 1.63-.728 1.07-.99 2.387-1.12 3.674-.102 1.014-.123 2.087.333 3 .46.912 1.53 1.59 2.5 1.285.63-.197 1.09-.74 1.49-1.26 1.41-1.796 2.76-3.638 4.05-5.522.41-.594.81-1.39.4-1.984-.27-.397-.8-.508-1.28-.588l-2.79-.465c-.4-.066-.81-.132-1.19-.004-.38.12-.71.51-.62.9" fill="#9DA1C8"/><path d="M322.964 267.978c-3.666-1.567-7.904-2.576-10.772-.046.02.486.113.942.262 1.375.1-.018.2-.042.3-.058 3.373-.56 6.785-1 10.21-1.28m-39.556 2.66c-1.86-.21-3.162-2.11-3.346-3.97-.184-1.87.477-3.7 1.128-5.45.17-.46.483-1.02.97-.95.386.05.6.46.746.82.945 2.31 1.89 4.62 2.833 6.93.31.77.63 1.64.34 2.42-.3.78-1.25 1.25-2.05 1.01-.81-.24-1.34-1.16-1.16-1.97" fill="#0E173D" opacity=".506"/><path d="M287.57 170.16c-1.548.436-3.18.568-4.78.388-.48-.054-1-.16-1.312-.53-.24-.29-.307-.688-.308-1.065-.012-3.184 3.5-5.033 5.35-7.625 1.534-2.147 2.293-5.275 4.824-6.016.754-.22 1.72-.086 2.084.61.212.412.158.905.08 1.36-.596 3.434-2.253 6.577-3.887 9.654-.77 1.456-1.74 3.064-3.35 3.408" fill="#0D173D" opacity=".506"/><path d="M321.72 160.05c-.064-1.766-.153-3.53-.266-5.294-.29-.053-.586-.08-.875-.056-2.78.238-4.48 3.033-6.01 5.367-1.52 2.32-3.29 4.47-5.27 6.403-.9.87-1.92 2.02-1.5 3.19.33.91 1.28 1.205 2.3 1.22.21.493 1.03.23 1.47-.142v-.002l.15-.027-.14.01c3.76-3.16 7.15-6.75 10.11-10.67" fill="#0C183C" opacity=".506"/><path d="M289.187 242.394c1.878 2.115 3.443 4.508 4.628 7.077.484 1.05.913 2.19.782 3.33-.13 1.15-.994 2.29-2.147 2.36-.298.02-.62-.04-.83-.25-.15-.14-.23-.34-.302-.54-.98-2.59-1.52-5.37-2.82-7.82-.587-1.1-1.325-2.13-1.77-3.3-.133-.35-.24-.73-.15-1.1.194-.76 1.226-1.06 1.94-.72.716.34 1.14 1.09 1.398 1.83m-17.784-6.58c.437 1.25.887 2.5 1.35 3.74.406 1.09.912 2.27 1.96 2.75.146.07.304.12.463.1.293-.03.506-.29.64-.56.755-1.48.003-3.27-.84-4.7-.513-.87-1.064-1.73-1.71-2.51-.248-.3-.534-.6-.913-.69-.387-.08-.82.1-1.03.43-.21.34-.178.81.074 1.12m-28.642 6.04c.058.95-.508 1.85-1.253 2.45-.74.59-1.65.93-2.54 1.25-2.36.86-4.76 1.73-7.27 1.84-.07-.78.66-1.38 1.32-1.82l6.7-4.5c.53-.35 1.08-.71 1.7-.85s1.35.02 1.73.52c.38.51.22 1.4-.39 1.59" fill="#9DA1C8"/><path d="M224.007 250.038c-1.386-.863-3.16.08-4.487 1.03-.955.684-2.014 1.823-1.458 2.857.338.628 1.127.84 1.834.928 1.96.242 3.978 0 5.826-.7.77-.29 1.63-.85 1.58-1.67-.047-.756-.833-1.212-1.52-1.53-1.14-.53-2.413-1.07-3.615-.7m-24.562 27.087c-.605.784-1.42 1.653-2.393 1.482-.895-.157-1.41-1.198-1.3-2.1.11-.903.673-1.678 1.245-2.385 1.65-2.04 3.74-3.994 6.345-4.31.385 1.798-.64 3.565-1.62 5.12-.975 1.54-1.958 3.093-3.23 4.4" fill="#9896BD"/><path d="M32.26 167.556c0 7.92-6.42 14.338-14.34 14.338-7.918 0-14.338-6.42-14.338-14.338 0-7.92 6.42-14.338 14.34-14.338 7.917 0 14.337 6.42 14.337 14.338" fill="#F05B2B"/><path d="M32.26 167.556c0 7.92-6.42 14.338-14.34 14.338-7.918 0-14.338-6.42-14.338-14.338 0-7.92 6.42-14.338 14.34-14.338 7.917 0 14.337 6.42 14.337 14.338z" stroke="#121740" stroke-width="2.2" stroke-linecap="round"/><path d="M16.17 163.806c0 2.07-1.68 3.75-3.75 3.75-2.07 0-3.75-1.68-3.75-3.75 0-2.07 1.68-3.75 3.75-3.75 2.072 0 3.75 1.68 3.75 3.75" fill="#EDA65B"/><path d="M7.48 72.313c-.776-.328-1.652.535-1.61 1.377.04.842.69 1.532 1.39 2 1.41.94 3.197 1.293 4.858.962.394-.078.794-.2 1.093-.468.64-.562.6-1.607.17-2.33-.43-.723-1.17-1.2-1.89-1.653-.9-.57-1.86-1.15-2.92-1.21-1.06-.05-2.25.65-2.33 1.71m7.86 16.05c.21-.93-.01-1.92.26-2.84.27-.91 1.42-1.69 2.15-1.08.36 1.04.52 2.14.48 3.23-.02.69-.18 1.45-.75 1.82-.66.44-1.64.1-2.05-.58-.41-.68-.33-1.56 0-2.28m11.89 5.15c-.67-.79-1.36-1.61-1.7-2.59-.34-.98-.26-2.18.47-2.92.73-.74 2.18-.72 2.69.19.3.54.22 1.22.49 1.78.54 1.17 2.34 1.42 2.69 2.66.28 1-.68 2-1.7 2.17-1.02.17-2.04-.23-3-.63m11.54-1.18c-1.85-.44-3.26-2.27-3.22-4.18 1.01-.67 2.45-.31 3.36.51.91.82 1.4 1.99 1.87 3.11l-2.26.43m7.65-2.38c-1.76-.31-2.58-2.3-3.1-4.01-.17-.56-.32-1.22.03-1.68.64-.83 1.96-.08 2.63.73 1.29 1.54 2.35 3.26 3.13 5.11-1.06.49-2.42.19-3.18-.7m8.03-1.81c-.71-.22-1.44-.45-2.01-.94-.56-.48-.93-1.29-.67-1.99.38-1.02 1.85-1.22 2.78-.65.93.57 1.44 1.62 1.89 2.61-.06.55-.57 1-1.12.99-.54-.01-1.04-.47-1.09-1.02m8.17-1.85c-1.26-1.91-1.93-4.2-1.91-6.5.01-.59.18-1.33.76-1.45.39-.07.76.18 1.07.43 1.01.78 2.03 1.58 2.72 2.65.69 1.07.98 2.48.43 3.63-.55 1.14-2.12 1.78-3.18 1.09l-.02-1.29" fill="#9EA2CB"/><path d="M69.582 79.367c-.453-.862-.71-1.826-.747-2.8-.022-.575.126-1.28.674-1.458.3-.1.62 0 .91.13.76.35 1.45.96 1.68 1.77.23.8-.11 1.8-.88 2.14-.77.34-1.84-.24-1.82-1.08" fill="#0E173D"/><path d="M76.08 76.04l-.477-8.974c-.03-.545-.017-1.183.418-1.51.38-.283.91-.203 1.35-.052 1.83.622 3.26 2.3 3.58 4.202.32 1.904-.48 3.953-2 5.138-.53.412-1.19.733-1.85.64-.66-.09-1.28-.734-1.13-1.39m10.57-7.227c-1.3-.593-2.15-2.06-2.01-3.485.14-1.424 1.25-2.703 2.64-3.038.52-.125 1.09-.12 1.56.134.97.526 1.13 1.94.62 2.92-.5.98-1.47 1.625-2.39 2.227m8.2-10.045c3.08-3.213 6.27-6.616 7.43-10.91.16-.6.19-1.41-.38-1.664-.47-.21-.99.146-1.38.486-3.14 2.732-6.02 5.852-7.95 9.54-.33.62-.63 1.29-.6 1.993.03.702.5 1.435 1.2 1.53.59.082 1.14-.293 1.61-.657" fill="#9EA2CB"/><path d="M106.967 38.512c-.776-1.67-1.104-3.546-.94-5.38 1.09-.452 2.47-.055 3.155.907.686.96.61 2.39-.176 3.28-.418.47-1.074.79-1.68.61-.604-.17-1-.98-.623-1.48m7.175-3.85c-1.955-2.53-2.873-5.84-2.502-9.01.035-.3.084-.6.252-.85.425-.63 1.438-.56 2.01-.06.57.5.81 1.26 1.024 1.99l1.128 3.81c.265.9.508 1.95-.043 2.71-.552.75-2.158.4-1.938-.51m7.33-4.31l-.84-11.31c-.06-.84-.04-1.86.68-2.29.6-.37 1.44-.08 1.89.46.45.54.62 1.26.73 1.96.38 2.29.41 4.62.44 6.94.01.97.02 1.96-.3 2.88-.33.91-1.06 1.75-2.02 1.91m7.47-4.89c-1.01-1.39-.67-3.31-.28-4.98.08-.34.17-.71.46-.92.63-.47 1.46.24 1.88.9.61.95 1.15 2.02 1.13 3.15-.02 1.13-.74 2.33-1.85 2.54-1.11.21-2.34-.99-1.9-2.03m12.23-3.17c.01-.43-.03-.85-.21-1.23-.27-.58-.94-1.01-1.54-.8-.64.22-.87 1-1 1.67l-.43 2.2c-.31.3-.41.84-.25 1.27l-.01.05.02-.03c.06.15.15.3.28.41.68.53 1.76.21 2.31-.46.36-.44.54-.98.65-1.53.05-.53.11-1.05.18-1.57" fill="#9EA2CA"/></g></svg>